<svg width="57" height="88" viewBox="0 0 57 88" fill="none" xmlns="http://www.w3.org/2000/svg">
<path d="M49.44 84.16C50.56 85.84 51.92 86.68 53.52 86.68H54.96V87.16H45L42.84 82.84C39.4 84.84 34.28 85.84 27.48 85.84C19.96 85.84 13.52 83.56 8.16 79C2.8 74.36 0.12 68.8 0.12 62.32C0.12 56.8 2.12 52.08 6.12 48.16C10.12 44.24 15.04 41.44 20.88 39.76L15.96 30.16C11.64 21.68 10.76 14.72 13.32 9.27999C14.6 6.64 16.44 4.44 18.84 2.67999C21.32 0.919998 23.92 0.0399995 26.64 0.0399995C31.68 0.0399995 35.92 1.68 39.36 4.95999C42.8 8.23999 44.52 12.52 44.52 17.8C44.52 23 43 27.28 39.96 30.64C36.92 34 32.44 36.88 26.52 39.28L47.16 79.6C50.36 77.2 52.64 74.08 54 70.24C55.36 66.4 55.52 62.56 54.48 58.72C54.08 56.96 53.08 55.68 51.48 54.88C49.88 54 48.24 53.88 46.56 54.52L46.32 54.16L51.96 52L52.2 52.48C55.16 56.96 56.16 61.88 55.2 67.24C54.32 72.52 51.68 76.76 47.28 79.96V80.08L49.44 84.16ZM16.56 9.39999C15.52 14.28 17.04 20.72 21.12 28.72L26.28 38.68C30.44 37.32 33.72 34.56 36.12 30.4C38.6 26.16 39.84 21.96 39.84 17.8C39.84 6.2 35.44 0.399995 26.64 0.399995C24 0.399995 21.8 1.31999 20.04 3.16C18.28 4.92 17.12 7 16.56 9.39999ZM27.48 85.48C29.08 85.48 30.28 85.44 31.08 85.36C31.96 85.36 33.08 85.24 34.44 85C35.8 84.84 37.12 84.56 38.4 84.16C39.76 83.76 41.16 83.2 42.6 82.48L21.12 40.36C17.12 41.8 13.8 44.08 11.16 47.2C8.52 50.32 6.96 53.96 6.48 58.12C5.92 62.68 6.4 67.04 7.92 71.2C9.52 75.36 12.04 78.8 15.48 81.52C19 84.16 23 85.48 27.48 85.48Z" fill="black"/>
</svg>
