<svg width="33" height="211" viewBox="0 0 33 211" fill="none" xmlns="http://www.w3.org/2000/svg">
<path d="M1.176 27.908V28.788H1V25.092H4.828C2.04133 22.276 0.648 18.9613 0.648 15.148C0.648 12.4787 1.352 10.0147 2.76 7.756C4.168 5.49733 6.07467 3.708 8.48 2.388C10.9147 1.09733 13.5547 0.452 16.4 0.452C19.2453 0.452 21.8707 1.09733 24.276 2.388C26.7107 3.708 28.632 5.49733 30.04 7.756C31.448 10.0147 32.152 12.4787 32.152 15.148C32.152 18.9027 30.7733 21.924 28.016 24.212C27.752 24.4173 27.6787 24.6667 27.796 24.96C27.9427 25.2827 28.192 25.4147 28.544 25.356L30.04 25.136V25.312L25.156 25.972L25.112 25.84C27.312 24.784 28.9987 23.332 30.172 21.484C31.3747 19.6653 31.976 17.5533 31.976 15.148C31.976 14.1507 31.8733 13.168 31.668 12.2C30.8467 9.472 29.0133 7.19867 26.168 5.38C23.352 3.59067 20.096 2.696 16.4 2.696C12.704 2.696 9.43333 3.59067 6.588 5.38C3.772 7.19867 1.95333 9.472 1.132 12.2C0.926667 13.168 0.824 14.1507 0.824 15.148C0.824 16.0573 0.912 16.9667 1.088 17.876C1.29333 18.7853 1.572 19.6507 1.924 20.472C2.30533 21.3227 2.74533 22.1293 3.244 22.892C3.772 23.684 4.37333 24.4173 5.048 25.092H17.632V15.852C17.632 15.5293 17.5293 15.236 17.324 14.972C17.1187 14.7373 16.84 14.5907 16.488 14.532L15.608 14.4V14.224L17.808 14.576V27.248L2.056 27.248C1.46933 27.248 1.176 27.468 1.176 27.908ZM30.04 43.6717C31.448 45.901 32.152 48.321 32.152 50.9317C32.152 53.5717 31.448 56.0064 30.04 58.2357C28.632 60.465 26.7107 62.225 24.276 63.5157C21.8707 64.8064 19.2453 65.4517 16.4 65.4517C13.5547 65.4517 10.9147 64.8064 8.48 63.5157C6.07467 62.225 4.168 60.465 2.76 58.2357C1.352 56.0064 0.648 53.5717 0.648 50.9317C0.648 48.321 1.352 45.901 2.76 43.6717C4.168 41.4424 6.07467 39.6824 8.48 38.3917C10.9147 37.101 13.5547 36.4557 16.4 36.4557C19.2453 36.4557 21.8707 37.101 24.276 38.3917C26.7107 39.6824 28.632 41.4424 30.04 43.6717ZM2.936 44.7277C1.55733 46.6344 0.868 48.7024 0.868 50.9317C0.868 53.161 1.55733 55.2144 2.936 57.0917C4.344 58.9984 6.236 60.4944 8.612 61.5797C10.988 62.6944 13.584 63.2517 16.4 63.2517C19.216 63.2517 21.812 62.6944 24.188 61.5797C26.564 60.4944 28.4413 58.9984 29.82 57.0917C31.228 55.2144 31.932 53.161 31.932 50.9317C31.932 49.2597 31.5213 47.661 30.7 46.1357C29.8787 44.6397 28.764 43.3344 27.356 42.2197C25.9773 41.1344 24.3347 40.2544 22.428 39.5797C20.5213 38.9344 18.512 38.6117 16.4 38.6117C13.584 38.6117 10.988 39.1544 8.612 40.2397C6.236 41.3544 4.344 42.8504 2.936 44.7277ZM31.8 92.0084V95.2644H31.624V94.3844C31.624 93.9444 31.3453 93.7244 30.788 93.7244H9.404C7.08667 93.7244 5.10667 92.9031 3.464 91.2604C1.82133 89.6178 1 87.6378 1 85.3204V84.4404C1 83.1498 1.24933 81.9031 1.748 80.7004C2.24667 79.5271 2.92133 78.5151 3.772 77.6644C4.652 76.8138 5.67867 76.1244 6.852 75.5964C8.02533 75.0978 9.272 74.8484 10.592 74.8484H30.744C31.3307 74.8484 31.624 74.6284 31.624 74.1884V73.3084H31.8V78.5884H31.624V77.7084C31.624 77.5031 31.5507 77.3418 31.404 77.2244C31.2867 77.1071 31.14 77.0484 30.964 77.0484H9.448C7.16 77.0484 5.20933 77.8551 3.596 79.4684C1.98267 81.0818 1.176 83.0178 1.176 85.2764C1.176 87.5644 1.98267 89.5151 3.596 91.1284C5.20933 92.7418 7.16 93.5484 9.448 93.5484H30.744C31.3307 93.5484 31.624 93.3284 31.624 92.8884V92.0084H31.8ZM6.632 119.895C5.928 120.129 5.42933 120.291 5.136 120.379C4.872 120.496 4.41733 120.701 3.772 120.995C3.156 121.317 2.70133 121.611 2.408 121.875C2.11467 122.139 1.836 122.491 1.572 122.931C1.308 123.4 1.176 123.899 1.176 124.427H1C1 122.784 1.29333 121.493 1.88 120.555C2.496 119.645 3.52267 118.927 4.96 118.399C5.63467 118.164 6.35333 117.9 7.116 117.607C7.908 117.343 8.72933 117.064 9.58 116.771C10.4307 116.507 10.988 116.331 11.252 116.243C13.188 115.568 14.5373 114.747 15.3 113.779C15.9453 112.987 16.268 111.975 16.268 110.743V106.827H2.056C1.46933 106.827 1.176 107.047 1.176 107.487V108.367H1V103.087H1.176V103.967C1.176 104.407 1.46933 104.627 2.056 104.627H30.744C31.3307 104.627 31.624 104.407 31.624 103.967V103.087H31.8V113.823C31.8 115.935 31.052 117.724 29.556 119.191C28.0893 120.687 26.3 121.435 24.188 121.435H23.88C22.5013 121.435 21.2253 121.097 20.052 120.423C18.8787 119.748 17.9547 118.824 17.28 117.651C16.6053 116.477 16.268 115.201 16.268 113.823V112.987C16.1213 113.749 15.8867 114.424 15.564 115.011C14.8307 116.419 13.5693 117.475 11.78 118.179C11.6627 118.237 10.8707 118.501 9.404 118.971C7.96667 119.44 7.04267 119.748 6.632 119.895ZM16.444 106.827V111.359V111.403C16.444 113.515 17.1627 115.333 18.6 116.859C20.0667 118.413 21.8267 119.22 23.88 119.279C25.288 119.279 26.5787 118.941 27.752 118.267C28.9547 117.621 29.8933 116.697 30.568 115.495C31.272 114.321 31.624 113.045 31.624 111.667V106.827H16.444ZM31.624 157.623C31.624 157.212 31.3307 156.992 30.744 156.963H1.836C1.66 156.963 1.49867 157.022 1.352 157.139C1.23467 157.286 1.176 157.447 1.176 157.623V158.503H1V153.267H1.176V154.147C1.176 154.558 1.46933 154.778 2.056 154.807C21.4453 154.807 31.272 154.807 31.536 154.807L4.696 145.039L1 146.359V144.203L31.58 133.071H2.056C1.46933 133.071 1.176 133.291 1.176 133.731V134.611H1V131.355H1.176V132.235C1.176 132.675 1.46933 132.895 2.056 132.895H30.744C31.3307 132.895 31.624 132.675 31.624 132.235V131.355H31.8V135.139L4.96 144.951L31.844 154.719L31.8 154.807V158.503H31.624V157.623ZM31.624 170.281H17.808V177.497C17.808 178.084 18.028 178.377 18.468 178.377H19.348V178.553H16.092V178.377H16.972C17.412 178.377 17.632 178.084 17.632 177.497V170.281H1.176L1.176 182.733C1.176 183.32 1.36667 183.833 1.748 184.273C2.12933 184.743 2.61333 185.021 3.2 185.109V185.285L1 184.933L1 166.541H1.176V167.421C1.176 167.597 1.23467 167.744 1.352 167.861C1.49867 168.008 1.66 168.081 1.836 168.081H30.744C31.3307 168.081 31.624 167.861 31.624 167.421V166.541H31.8V184.933L29.6 185.285V185.109C30.1867 185.021 30.6707 184.743 31.052 184.273C31.4333 183.833 31.624 183.32 31.624 182.733V170.281ZM29.6 210.53V210.354C30.1867 210.266 30.6707 209.988 31.052 209.518C31.4333 209.078 31.624 208.565 31.624 207.978V201.906H2.056C1.46933 201.906 1.176 202.126 1.176 202.566V203.446H1V198.21H1.176V199.09C1.176 199.266 1.23467 199.413 1.352 199.53C1.49867 199.677 1.66 199.75 1.836 199.75H31.624L31.624 193.678C31.624 193.062 31.4333 192.534 31.052 192.094C30.6707 191.654 30.1867 191.39 29.6 191.302V191.126L31.8 191.434L31.8 210.222L29.6 210.53Z" fill="black"/>
</svg>
