<svg width="67" height="103" viewBox="0 0 67 103" fill="none" xmlns="http://www.w3.org/2000/svg">
<path d="M57.68 99.02C58.9867 100.98 60.5733 101.96 62.44 101.96H64.12V102.52H52.5L49.98 97.48C45.9667 99.8133 39.9933 100.98 32.06 100.98C23.2867 100.98 15.7733 98.32 9.52 93C3.26667 87.5867 0.14 81.1 0.14 73.54C0.14 67.1 2.47333 61.5933 7.14 57.02C11.8067 52.4467 17.5467 49.18 24.36 47.22L18.62 36.02C13.58 26.1267 12.5533 18.0067 15.54 11.66C17.0333 8.57999 19.18 6.01333 21.98 3.95999C24.8733 1.90666 27.9067 0.879999 31.08 0.879999C36.96 0.879999 41.9067 2.79333 45.92 6.61999C49.9333 10.4467 51.94 15.44 51.94 21.6C51.94 27.6667 50.1667 32.66 46.62 36.58C43.0733 40.5 37.8467 43.86 30.94 46.66L55.02 93.7C58.7533 90.9 61.4133 87.26 63 82.78C64.5867 78.3 64.7733 73.82 63.56 69.34C63.0933 67.2867 61.9267 65.7933 60.06 64.86C58.1933 63.8333 56.28 63.6933 54.32 64.44L54.04 64.02L60.62 61.5L60.9 62.06C64.3533 67.2867 65.52 73.0267 64.4 79.28C63.3733 85.44 60.2933 90.3867 55.16 94.12V94.26L57.68 99.02ZM19.32 11.8C18.1067 17.4933 19.88 25.0067 24.64 34.34L30.66 45.96C35.5133 44.3733 39.34 41.1533 42.14 36.3C45.0333 31.3533 46.48 26.4533 46.48 21.6C46.48 8.06666 41.3467 1.29999 31.08 1.29999C28 1.29999 25.4333 2.37333 23.38 4.51999C21.3267 6.57333 19.9733 8.99999 19.32 11.8ZM32.06 100.56C33.9267 100.56 35.3267 100.513 36.26 100.42C37.2867 100.42 38.5933 100.28 40.18 100C41.7667 99.8133 43.3067 99.4867 44.8 99.02C46.3867 98.5533 48.02 97.9 49.7 97.06L24.64 47.92C19.9733 49.6 16.1 52.26 13.02 55.9C9.94 59.54 8.12 63.7867 7.56 68.64C6.90667 73.96 7.46667 79.0467 9.24 83.9C11.1067 88.7533 14.0467 92.7667 18.06 95.94C22.1667 99.02 26.8333 100.56 32.06 100.56Z" fill="black"/>
</svg>
