<svg width="306" height="111" viewBox="0 0 306 111" fill="none" xmlns="http://www.w3.org/2000/svg">
<path d="M45.792 18H56.672V18.512H54.112C52.832 18.512 52.192 19.3653 52.192 21.072V77.392C52.192 80.1227 52.1067 82.5973 51.936 84.816C51.7653 87.12 51.424 89.424 50.912 91.728C50.4853 94.032 49.888 96.08 49.12 97.872C48.352 99.7493 47.328 101.499 46.048 103.12C44.8533 104.741 43.4027 106.107 41.696 107.216C40.0747 108.325 38.0693 109.179 35.68 109.776C33.376 110.373 30.816 110.672 28 110.672C22.112 110.672 17.0347 108.581 12.768 104.4C8.58667 100.304 6.45333 95.312 6.368 89.424V88.912L12.64 87.376V87.888C10.7627 88.3147 9.35467 89.3813 8.416 91.088C7.56267 92.7947 7.47733 94.544 8.16 96.336C9.61067 100.432 12.128 103.76 15.712 106.32C19.3813 108.965 23.4773 110.288 28 110.288C29.9627 110.288 31.7547 110.075 33.376 109.648C34.9973 109.307 36.3627 108.795 37.472 108.112C38.6667 107.429 39.7333 106.576 40.672 105.552C41.6107 104.613 42.336 103.547 42.848 102.352C43.4453 101.157 43.9573 99.8773 44.384 98.512C44.8107 97.1467 45.1093 95.696 45.28 94.16C45.4507 92.7093 45.5787 91.1733 45.664 89.552C45.8347 88.016 45.8773 86.4373 45.792 84.816C45.792 83.1947 45.8347 81.5733 45.92 79.952C45.8347 78.5867 45.792 77.6053 45.792 77.008V71.12C43.4027 74.6187 40.5013 77.392 37.088 79.44C33.76 81.4027 30.2187 82.384 26.464 82.384C19.3813 82.384 13.3227 79.184 8.288 72.784C3.25333 66.384 0.736 58.6613 0.736 49.616C0.736 40.5707 3.25333 32.8907 8.288 26.576C13.3227 20.176 19.3813 16.976 26.464 16.976C30.2187 16.976 33.76 17.9573 37.088 19.92C40.5013 21.8827 43.4027 24.656 45.792 28.24V18ZM45.792 67.28V31.696C43.5733 27.344 40.672 23.888 37.088 21.328C33.504 18.768 29.9627 17.488 26.464 17.488C21.1733 17.488 16.6507 20.6453 12.896 26.96C9.14133 33.1893 7.264 40.784 7.264 49.744C7.264 58.6187 9.14133 66.2133 12.896 72.528C16.6507 78.7573 21.1733 81.872 26.464 81.872C29.9627 81.872 33.4613 80.5493 36.96 77.904C40.544 75.2587 43.488 71.7173 45.792 67.28ZM108.491 80.848H111.051V81.36H100.299V72.4C97.1417 79.056 90.1443 82.384 79.307 82.384C73.5043 82.384 69.1097 80.8053 66.123 77.648C63.2217 74.4907 61.643 70.6933 61.387 66.256C61.131 61.3067 62.8803 57.04 66.635 53.456C70.475 49.872 76.0217 47.2693 83.275 45.648C90.8697 43.856 96.075 41.3387 98.891 38.096C99.8297 36.9867 100.299 35.7067 100.299 34.256V32.592C100.299 28.496 98.763 24.9547 95.691 21.968C92.7043 18.9813 89.2483 17.488 85.323 17.488C78.5817 17.4027 72.7363 19.664 67.787 24.272C65.5683 26.2347 64.971 28.368 65.995 30.672L65.611 30.928L63.819 26.832C67.659 23.3333 71.0723 20.8587 74.059 19.408C77.131 17.872 80.8857 17.104 85.323 17.104H85.451C91.2537 17.104 96.203 19.1947 100.299 23.376C104.48 27.472 106.571 32.4213 106.571 38.224V78.288C106.656 79.9947 107.296 80.848 108.491 80.848ZM100.299 71.12V37.2C97.8243 41.2107 92.1923 44.1547 83.403 46.032C80.587 46.6293 78.1123 47.6533 75.979 49.104C73.8457 50.4693 72.2243 52.0053 71.115 53.712C70.091 55.3333 69.2377 57.0827 68.555 58.96C67.8723 60.752 67.531 62.4587 67.531 64.08C67.6163 65.616 67.7017 66.9813 67.787 68.176C68.4697 72.272 70.0483 75.5573 72.523 78.032C75.083 80.5067 78.1977 81.744 81.867 81.744C86.5603 81.744 90.7417 80.592 94.411 78.288C97.227 76.4107 99.1897 74.0213 100.299 71.12ZM163.803 74.96H164.315L163.419 81.36H114.011L157.147 18.512H120.923C119.131 18.512 117.595 19.1093 116.315 20.304C115.035 21.4133 114.267 22.8213 114.011 24.528H113.499L114.395 18H163.803C135.558 59.3013 121.222 80.2507 120.795 80.848H156.891C158.683 80.848 160.219 80.2933 161.499 79.184C162.779 78.0747 163.547 76.6667 163.803 74.96ZM179.754 80.848H182.314V81.36H166.954V80.848H169.514C170.794 80.848 171.434 80.0373 171.434 78.416V21.072C171.434 19.3653 170.794 18.512 169.514 18.512H166.954V18H177.834V78.416C177.834 80.0373 178.474 80.848 179.754 80.848ZM176.81 6.224C176.213 6.82133 175.487 7.12 174.634 7.12C173.781 7.12 173.013 6.82133 172.33 6.224C171.733 5.62666 171.434 4.90133 171.434 4.048C171.434 3.10933 171.733 2.34133 172.33 1.744C173.013 1.14666 173.781 0.848 174.634 0.848C175.487 0.848 176.213 1.14666 176.81 1.744C177.493 2.34133 177.834 3.10933 177.834 4.048C177.834 4.90133 177.493 5.62666 176.81 6.224ZM242.547 80.848H245.107V81.36H229.747V80.848H232.307C233.587 80.848 234.227 79.9947 234.227 78.288V49.616C234.227 38.864 232.691 30.8 229.619 25.424C226.632 20.048 222.408 17.36 216.947 17.36C213.448 17.36 209.907 18.6827 206.323 21.328C202.739 23.888 199.838 27.344 197.619 31.696V78.288C197.619 79.9947 198.259 80.848 199.539 80.848H202.099V81.36H186.739V80.848H189.299C190.579 80.848 191.219 79.9947 191.219 78.288V21.072C191.219 19.3653 190.579 18.512 189.299 18.512H186.739V18H197.619V28.24C200.008 24.656 202.867 21.8827 206.195 19.92C209.523 17.9573 213.107 16.976 216.947 16.976C223.859 16.976 229.406 19.4933 233.587 24.528C238.195 29.9893 240.499 37.2853 240.499 46.416L240.627 78.416C240.627 80.0373 241.267 80.848 242.547 80.848ZM294.467 18H305.347V18.512H302.787C301.507 18.512 300.867 19.3653 300.867 21.072V77.392C300.867 80.1227 300.782 82.5973 300.611 84.816C300.44 87.12 300.099 89.424 299.587 91.728C299.16 94.032 298.563 96.08 297.795 97.872C297.027 99.7493 296.003 101.499 294.723 103.12C293.528 104.741 292.078 106.107 290.371 107.216C288.75 108.325 286.744 109.179 284.355 109.776C282.051 110.373 279.491 110.672 276.675 110.672C270.787 110.672 265.71 108.581 261.443 104.4C257.262 100.304 255.128 95.312 255.043 89.424V88.912L261.315 87.376V87.888C259.438 88.3147 258.03 89.3813 257.091 91.088C256.238 92.7947 256.152 94.544 256.835 96.336C258.286 100.432 260.803 103.76 264.387 106.32C268.056 108.965 272.152 110.288 276.675 110.288C278.638 110.288 280.43 110.075 282.051 109.648C283.672 109.307 285.038 108.795 286.147 108.112C287.342 107.429 288.408 106.576 289.347 105.552C290.286 104.613 291.011 103.547 291.523 102.352C292.12 101.157 292.632 99.8773 293.059 98.512C293.486 97.1467 293.784 95.696 293.955 94.16C294.126 92.7093 294.254 91.1733 294.339 89.552C294.51 88.016 294.552 86.4373 294.467 84.816C294.467 83.1947 294.51 81.5733 294.595 79.952C294.51 78.5867 294.467 77.6053 294.467 77.008V71.12C292.078 74.6187 289.176 77.392 285.763 79.44C282.435 81.4027 278.894 82.384 275.139 82.384C268.056 82.384 261.998 79.184 256.963 72.784C251.928 66.384 249.411 58.6613 249.411 49.616C249.411 40.5707 251.928 32.8907 256.963 26.576C261.998 20.176 268.056 16.976 275.139 16.976C278.894 16.976 282.435 17.9573 285.763 19.92C289.176 21.8827 292.078 24.656 294.467 28.24V18ZM294.467 67.28V31.696C292.248 27.344 289.347 23.888 285.763 21.328C282.179 18.768 278.638 17.488 275.139 17.488C269.848 17.488 265.326 20.6453 261.571 26.96C257.816 33.1893 255.939 40.784 255.939 49.744C255.939 58.6187 257.816 66.2133 261.571 72.528C265.326 78.7573 269.848 81.872 275.139 81.872C278.638 81.872 282.136 80.5493 285.635 77.904C289.219 75.2587 292.163 71.7173 294.467 67.28Z" fill="white"/>
</svg>
