<svg width="110" height="45" viewBox="0 0 110 45" fill="none" xmlns="http://www.w3.org/2000/svg">
<path d="M6.556 0.847998C5.936 0.847998 5.626 1.26133 5.626 2.088V42.512C5.626 43.3387 5.936 43.752 6.556 43.752H7.796V44H0.356V43.752H1.596C1.844 43.752 2.05067 43.6693 2.216 43.504C2.42267 43.2973 2.526 43.07 2.526 42.822V2.088C2.526 1.26133 2.216 0.847998 1.596 0.847998H0.356V0.599997H7.796V0.847998H6.556ZM41.1723 18.766C41.4617 18.89 42.2263 19.262 43.4663 19.882C44.7063 20.4607 45.5537 20.8947 46.0083 21.184C46.5043 21.4733 47.207 21.9073 48.1163 22.486C49.0257 23.0233 49.7697 23.602 50.3483 24.222C50.927 24.842 51.423 25.524 51.8363 26.268C52.9937 28.1693 53.5723 30.236 53.5723 32.468C53.5723 35.9813 52.3737 38.8747 49.9763 41.148C47.579 43.38 44.1483 44.496 39.6843 44.496C37.2457 44.496 35.1583 44.062 33.4223 43.194C31.7277 42.326 30.219 40.9827 28.8963 39.164C28.607 38.7507 28.235 38.6473 27.7803 38.854C27.3257 39.0193 27.1397 39.35 27.2223 39.846L27.4703 41.582H27.2223L26.2923 34.7L26.5403 34.638C28.0697 37.9447 29.8263 40.3833 31.8103 41.954C33.8357 43.5247 36.4603 44.31 39.6843 44.31H39.7463C42.7223 44.31 45.2437 43.256 47.3103 41.148C49.4183 39.04 50.4723 36.498 50.4723 33.522C50.4723 29.1407 48.4883 25.9373 44.5203 23.912L40.6763 21.99C40.015 21.6593 39.023 21.184 37.7003 20.564C36.3777 19.9027 35.3857 19.4067 34.7243 19.076C31.7897 17.588 29.847 16.038 28.8963 14.426C27.9457 12.8967 27.4703 11.202 27.4703 9.342C27.4703 6.82067 28.545 4.65067 30.6943 2.832C32.885 1.01333 35.489 0.104 38.5063 0.104C40.9863 0.104 43.0737 0.558665 44.7683 1.468C46.5043 2.336 48.0337 3.67933 49.3563 5.498C49.6457 5.87 49.997 5.97333 50.4103 5.808C50.865 5.64267 51.0717 5.312 51.0303 4.816L50.7823 3.08H50.9683L51.8983 9.962L51.7123 10.024C50.1417 6.71733 48.3643 4.27867 46.3803 2.708C44.3963 1.13733 41.7717 0.351997 38.5063 0.351997C36.3157 0.351997 34.435 1.13733 32.8643 2.708C31.2937 4.27867 30.5083 6.15933 30.5083 8.35C30.5083 9.87933 30.901 11.3053 31.6863 12.628C32.4717 13.9093 33.5463 14.9013 34.9103 15.604C35.5717 15.9347 36.605 16.4513 38.0103 17.154C39.4157 17.8567 40.4697 18.394 41.1723 18.766ZM61.1276 0.847998V20.316H71.2956C72.1223 20.316 72.5356 20.006 72.5356 19.386V18.146H72.7836V22.734H72.5356V21.494C72.5356 20.874 72.1223 20.564 71.2956 20.564H61.1276V43.752H78.6736C79.5003 43.752 80.2236 43.4833 80.8436 42.946C81.505 42.4087 81.8976 41.7267 82.0216 40.9H82.2696L81.7736 44H55.8576V43.752H57.0976C57.3456 43.752 57.5523 43.6693 57.7176 43.504C57.9243 43.2973 58.0276 43.07 58.0276 42.822V2.088C58.0276 1.26133 57.7176 0.847998 57.0976 0.847998H55.8576V0.599997H81.7736L82.2696 3.7H82.0216C81.8976 2.87333 81.505 2.19133 80.8436 1.654C80.2236 1.11666 79.5003 0.847998 78.6736 0.847998H61.1276ZM88.3301 0.847998V20.316H98.4981C99.3248 20.316 99.7381 20.006 99.7381 19.386V18.146H99.9861V22.734H99.7381V21.494C99.7381 20.874 99.3248 20.564 98.4981 20.564H88.3301V43.752H105.876C106.703 43.752 107.426 43.4833 108.046 42.946C108.707 42.4087 109.1 41.7267 109.224 40.9H109.472L108.976 44H83.0601V43.752H84.3001C84.5481 43.752 84.7548 43.6693 84.9201 43.504C85.1268 43.2973 85.2301 43.07 85.2301 42.822V2.088C85.2301 1.26133 84.9201 0.847998 84.3001 0.847998H83.0601V0.599997H108.976L109.472 3.7H109.224C109.1 2.87333 108.707 2.19133 108.046 1.654C107.426 1.11666 106.703 0.847998 105.876 0.847998H88.3301Z" fill="white"/>
</svg>
