<svg width="42" height="290" viewBox="0 0 42 290" fill="none" xmlns="http://www.w3.org/2000/svg">
<path d="M41.368 6.35H41.6V13.31H41.368V12.15C41.368 11.8793 41.2907 11.6667 41.136 11.512C40.9813 11.396 40.8073 11.3187 40.614 11.28C40.4593 11.28 40.208 11.28 39.86 11.28C39.744 11.28 39.6667 11.28 39.628 11.28L18.11 11.28C17.0273 11.28 16.1187 11.2607 15.384 11.222C14.6493 11.222 13.6247 11.1447 12.31 10.99C10.9953 10.874 9.85467 10.6807 8.888 10.41C7.96 10.1393 6.93533 9.73333 5.814 9.192C4.69267 8.68933 3.76467 8.07067 3.03 7.336C2.334 6.64 1.73467 5.712 1.232 4.552C0.768 3.392 0.536 2.09667 0.536 0.666H0.768C0.768 1.43933 0.845333 2.13533 1 2.754C1.15467 3.41133 1.406 3.972 1.754 4.436C2.14067 4.93867 2.52733 5.38333 2.914 5.77C3.30067 6.15667 3.82267 6.48533 4.48 6.756C5.176 7.02667 5.77533 7.25867 6.278 7.452C6.81933 7.64533 7.53467 7.8 8.424 7.916C9.352 8.032 10.106 8.12867 10.686 8.206C11.3047 8.28333 12.1553 8.322 13.238 8.322C14.3207 8.36067 15.152 8.38 15.732 8.38C16.312 8.38 17.182 8.38 18.342 8.38C18.4967 8.38 18.6127 8.38 18.69 8.38L40.324 8.38C41.02 8.38 41.368 8.09 41.368 7.51V6.35ZM41.368 26.6921H23.156L23.156 36.2041C23.156 36.9775 23.446 37.3641 24.026 37.3641H25.186V37.5961H20.894V37.3641H22.054C22.634 37.3641 22.924 36.9775 22.924 36.2041L22.924 26.6921L1.232 26.6921V43.1061C1.232 43.8795 1.48333 44.5561 1.986 45.1361C2.48867 45.7548 3.12667 46.1221 3.9 46.2381V46.4701L1 46.0061V21.7621H1.232V22.9221C1.232 23.1541 1.30933 23.3475 1.464 23.5021C1.65733 23.6955 1.87 23.7921 2.102 23.7921L40.208 23.7921C40.9813 23.7921 41.368 23.5021 41.368 22.9221V21.7621H41.6V46.0061L38.7 46.4701V46.2381C39.4733 46.1221 40.1113 45.7548 40.614 45.1361C41.1167 44.5561 41.368 43.8795 41.368 43.1061V26.6921ZM41.368 93.2036H41.6V97.2636H41.368V96.6836C41.368 96.1036 41.136 95.6783 40.672 95.4076C40.208 95.137 39.5893 94.8856 38.816 94.6536L2.914 85.6636L1 86.1276V83.2276L35.278 74.7016L2.914 66.5816L1 67.0456V64.1456L40.034 54.4596C40.3047 54.3823 40.5367 54.247 40.73 54.0536C40.9233 53.899 41.078 53.7056 41.194 53.4736C41.31 53.2416 41.368 52.9903 41.368 52.7196V52.0816H41.6V58.9256H41.368V58.3456C41.368 57.959 41.2327 57.669 40.962 57.4756C40.73 57.2823 40.4207 57.2243 40.034 57.3016L3.378 66.4656L35.742 74.5856L40.034 73.4836C40.2273 73.445 40.4013 73.3676 40.556 73.2516C40.7493 73.1743 40.904 73.0583 41.02 72.9036C41.136 72.749 41.2133 72.575 41.252 72.3816C41.3293 72.1883 41.368 71.995 41.368 71.8016V71.1636H41.6V78.0076H41.368V77.4276C41.368 77.041 41.2327 76.751 40.962 76.5576C40.73 76.3643 40.4207 76.3063 40.034 76.3836L3.378 85.5476L39.222 94.5376C40.6527 94.9243 41.368 94.6536 41.368 93.7256V93.2036ZM41.368 108.839H23.156V118.351C23.156 119.125 23.446 119.511 24.026 119.511H25.186V119.743H20.894V119.511H22.054C22.634 119.511 22.924 119.125 22.924 118.351V108.839H1.232V125.253C1.232 126.027 1.48333 126.703 1.986 127.283C2.48867 127.902 3.12667 128.269 3.9 128.385V128.617L1 128.153V103.909H1.232V105.069C1.232 105.301 1.30933 105.495 1.464 105.649C1.65733 105.843 1.87 105.939 2.102 105.939H40.208C40.9813 105.939 41.368 105.649 41.368 105.069V103.909H41.6V128.153L38.7 128.617V128.385C39.4733 128.269 40.1113 127.902 40.614 127.283C41.1167 126.703 41.368 126.027 41.368 125.253V108.839ZM3.9 161.199V161.431L1 160.967V136.723H1.232V137.883C1.232 138.115 1.30933 138.308 1.464 138.463C1.65733 138.656 1.87 138.753 2.102 138.753H40.208C40.9813 138.753 41.368 138.463 41.368 137.883V136.723H41.6V143.683H41.368V142.523C41.368 141.943 40.9813 141.653 40.208 141.653C14.456 141.653 1.464 141.653 1.232 141.653V158.067C1.232 158.84 1.48333 159.517 1.986 160.097C2.48867 160.715 3.12667 161.083 3.9 161.199ZM3.9 193.38V193.612L1 193.148L1 168.904H1.232V170.064C1.232 170.296 1.30933 170.489 1.464 170.644C1.65733 170.837 1.87 170.934 2.102 170.934H40.208C40.9813 170.934 41.368 170.644 41.368 170.064V168.904H41.6L41.6 175.864H41.368V174.704C41.368 174.124 40.9813 173.834 40.208 173.834C14.456 173.834 1.464 173.834 1.232 173.834L1.232 190.248C1.232 191.021 1.48333 191.698 1.986 192.278C2.48867 192.896 3.12667 193.264 3.9 193.38ZM41.368 205.609H23.156V215.121C23.156 215.894 23.446 216.281 24.026 216.281H25.186V216.513H20.894V216.281H22.054C22.634 216.281 22.924 215.894 22.924 215.121V205.609H1.232V222.023C1.232 222.796 1.48333 223.473 1.986 224.053C2.48867 224.671 3.12667 225.039 3.9 225.155V225.387L1 224.923V200.679H1.232V201.839C1.232 202.071 1.30933 202.264 1.464 202.419C1.65733 202.612 1.87 202.709 2.102 202.709H40.208C40.9813 202.709 41.368 202.419 41.368 201.839V200.679H41.6V224.923L38.7 225.387V225.155C39.4733 225.039 40.1113 224.671 40.614 224.053C41.1167 223.473 41.368 222.796 41.368 222.023V205.609ZM8.424 255.242C7.496 255.551 6.83867 255.764 6.452 255.88C6.104 256.035 5.50467 256.305 4.654 256.692C3.842 257.117 3.24267 257.504 2.856 257.852C2.46933 258.2 2.102 258.664 1.754 259.244C1.406 259.863 1.232 260.52 1.232 261.216H1C1 259.051 1.38667 257.349 2.16 256.112C2.972 254.913 4.32533 253.966 6.22 253.27C7.10933 252.961 8.05667 252.613 9.062 252.226C10.106 251.878 11.1887 251.511 12.31 251.124C13.4313 250.776 14.166 250.544 14.514 250.428C17.066 249.539 18.8447 248.456 19.85 247.18C20.7007 246.136 21.126 244.802 21.126 243.178V238.016H2.392C1.61867 238.016 1.232 238.306 1.232 238.886V240.046H1V233.086H1.232V234.246C1.232 234.826 1.61867 235.116 2.392 235.116H40.208C40.9813 235.116 41.368 234.826 41.368 234.246V233.086H41.6V247.238C41.6 250.022 40.614 252.381 38.642 254.314C36.7087 256.286 34.35 257.272 31.566 257.272H31.16C29.3427 257.272 27.6607 256.827 26.114 255.938C24.5673 255.049 23.3493 253.831 22.46 252.284C21.5707 250.737 21.126 249.055 21.126 247.238V246.136C20.9327 247.141 20.6233 248.031 20.198 248.804C19.2313 250.66 17.5687 252.052 15.21 252.98C15.0553 253.057 14.0113 253.405 12.078 254.024C10.1833 254.643 8.96533 255.049 8.424 255.242ZM21.358 238.016V243.99V244.048C21.358 246.832 22.3053 249.229 24.2 251.24C26.1333 253.289 28.4533 254.353 31.16 254.43C33.016 254.43 34.7173 253.985 36.264 253.096C37.8493 252.245 39.0867 251.027 39.976 249.442C40.904 247.895 41.368 246.213 41.368 244.396V238.016H21.358ZM41.6 285.42V289.422H41.368V288.784C41.368 288.397 41.2133 288.01 40.904 287.624C40.5947 287.276 40.2853 287.005 39.976 286.812C39.7053 286.618 39.2993 286.386 38.758 286.116L21.764 277.59H2.392C1.61867 277.59 1.232 277.88 1.232 278.46V279.62H1V272.718H1.232V273.82C1.232 274.09 1.30933 274.303 1.464 274.458C1.65733 274.651 1.87 274.748 2.102 274.748H21.764L40.208 266.164C40.9813 265.777 41.368 265.294 41.368 264.714V263.554H41.6V270.398H41.368V269.354C41.368 268.774 40.9813 268.658 40.208 269.006L21.996 277.474L39.164 286.116C40.6333 286.85 41.368 286.754 41.368 285.826V285.42H41.6Z" fill="black"/>
</svg>
