<svg width="179" height="93" viewBox="0 0 179 93" fill="none" xmlns="http://www.w3.org/2000/svg">
<path d="M31.56 38.904C32.1573 39.16 33.736 39.928 36.296 41.208C38.856 42.4027 40.6053 43.2987 41.544 43.896C42.568 44.4933 44.0187 45.3893 45.896 46.584C47.7733 47.6933 49.3093 48.888 50.504 50.168C51.6987 51.448 52.7227 52.856 53.576 54.392C55.9653 58.3173 57.16 62.584 57.16 67.192C57.16 74.4453 54.6853 80.4187 49.736 85.112C44.7867 89.72 37.704 92.024 28.488 92.024C23.4533 92.024 19.144 91.128 15.56 89.336C12.0613 87.544 8.94667 84.7707 6.216 81.016C5.61867 80.1627 4.85067 79.9493 3.912 80.376C2.97333 80.7173 2.58933 81.4 2.76 82.424L3.272 86.008H2.76L0.84 71.8L1.352 71.672C4.50933 78.4987 8.136 83.5333 12.232 86.776C16.4133 90.0187 21.832 91.64 28.488 91.64H28.616C34.76 91.64 39.9653 89.464 44.232 85.112C48.584 80.76 50.76 75.512 50.76 69.368C50.76 60.3227 46.664 53.7093 38.472 49.528L30.536 45.56C29.1707 44.8773 27.1227 43.896 24.392 42.616C21.6613 41.2507 19.6133 40.2267 18.248 39.544C12.1893 36.472 8.17867 33.272 6.216 29.944C4.25333 26.7867 3.272 23.288 3.272 19.448C3.272 14.2427 5.49067 9.76266 9.928 6.008C14.4507 2.25333 19.8267 0.375999 26.056 0.375999C31.176 0.375999 35.4853 1.31466 38.984 3.19199C42.568 4.984 45.7253 7.75733 48.456 11.512C49.0533 12.28 49.7787 12.4933 50.632 12.152C51.5707 11.8107 51.9973 11.128 51.912 10.104L51.4 6.52H51.784L53.704 20.728L53.32 20.856C50.0773 14.0293 46.408 8.99466 42.312 5.752C38.216 2.50933 32.7973 0.887993 26.056 0.887993C21.5333 0.887993 17.6507 2.50933 14.408 5.752C11.1653 8.99466 9.544 12.8773 9.544 17.4C9.544 20.5573 10.3547 23.5013 11.976 26.232C13.5973 28.8773 15.816 30.9253 18.632 32.376C19.9973 33.0587 22.1307 34.1253 25.032 35.576C27.9333 37.0267 30.1093 38.136 31.56 38.904ZM82.23 90.872H81.846H81.718H82.102L82.23 91.384C75.062 91.2987 70.4113 89.72 68.278 86.648C66.1447 83.576 65.078 77.4747 65.078 68.344V26.488H57.014V26.104H65.078V4.088C64.9927 2.38133 64.3527 1.52799 63.158 1.52799H60.598V1.016H71.35V26.104H79.414V26.488H71.35V68.344C71.35 71.0747 71.35 73.1227 71.35 74.488C71.4353 75.768 71.5207 77.3467 71.606 79.224C71.6913 81.1013 71.8193 82.424 71.99 83.192C72.1607 83.96 72.4167 84.9413 72.758 86.136C73.0993 87.2453 73.526 88.0133 74.038 88.44C74.55 88.7813 75.19 89.208 75.958 89.72C76.726 90.232 77.622 90.5733 78.646 90.744C79.67 90.8293 80.8647 90.872 82.23 90.872ZM130.151 89.848H132.711V90.36H121.959V81.4C118.802 88.056 111.804 91.384 100.967 91.384C95.1643 91.384 90.7697 89.8053 87.783 86.648C84.8817 83.4907 83.303 79.6933 83.047 75.256C82.791 70.3067 84.5403 66.04 88.295 62.456C92.135 58.872 97.6817 56.2693 104.935 54.648C112.53 52.856 117.735 50.3387 120.551 47.096C121.49 45.9867 121.959 44.7067 121.959 43.256V41.592C121.959 37.496 120.423 33.9547 117.351 30.968C114.364 27.9813 110.908 26.488 106.983 26.488C100.242 26.4027 94.3963 28.664 89.447 33.272C87.2283 35.2347 86.631 37.368 87.655 39.672L87.271 39.928L85.479 35.832C89.319 32.3333 92.7323 29.8587 95.719 28.408C98.791 26.872 102.546 26.104 106.983 26.104H107.111C112.914 26.104 117.863 28.1947 121.959 32.376C126.14 36.472 128.231 41.4213 128.231 47.224V87.288C128.316 88.9947 128.956 89.848 130.151 89.848ZM121.959 80.12V46.2C119.484 50.2107 113.852 53.1547 105.063 55.032C102.247 55.6293 99.7723 56.6533 97.639 58.104C95.5057 59.4693 93.8843 61.0053 92.775 62.712C91.751 64.3333 90.8977 66.0827 90.215 67.96C89.5323 69.752 89.191 71.4587 89.191 73.08C89.2763 74.616 89.3617 75.9813 89.447 77.176C90.1297 81.272 91.7083 84.5573 94.183 87.032C96.743 89.5067 99.8577 90.744 103.527 90.744C108.22 90.744 112.402 89.592 116.071 87.288C118.887 85.4107 120.85 83.0213 121.959 80.12ZM161.527 25.976C163.66 25.976 165.623 26.232 167.415 26.744C169.292 27.1707 171.084 27.9387 172.791 29.048C174.583 30.1573 176.375 31.6507 178.167 33.528L175.351 39.16L174.839 39.032C175.692 37.3253 175.906 35.576 175.479 33.784C175.052 31.992 174.071 30.5413 172.535 29.432C169.634 27.4693 165.964 26.488 161.527 26.488C155.724 26.488 151.202 29.8587 147.959 36.6V87.288C147.959 88.9947 148.599 89.848 149.879 89.848H152.439V90.36H137.079V89.848H139.639C140.919 89.848 141.559 88.9947 141.559 87.288V30.072C141.559 28.3653 140.919 27.512 139.639 27.512H137.079V27H147.959V32.888C151.287 28.28 155.81 25.976 161.527 25.976Z" fill="white"/>
</svg>
