<svg width="273" height="96" viewBox="0 0 273 96" fill="none" xmlns="http://www.w3.org/2000/svg">
<path d="M59.228 7.9H58.692C58.424 6.11333 57.5753 4.63933 56.146 3.478C54.806 2.31666 53.2427 1.73599 51.456 1.73599H32.964V91.784C32.964 93.5707 33.634 94.464 34.974 94.464H37.654V95H21.708V94.464H24.388C24.924 94.464 25.3707 94.2853 25.728 93.928C26.1747 93.4813 26.398 92.99 26.398 92.454V1.73599H7.906C6.03 1.73599 4.422 2.31666 3.082 3.478C1.742 4.63933 0.938 6.11333 0.67 7.9H0.134L1.072 1.19999H58.29L59.228 7.9ZM74.2831 26.928C76.5164 26.928 78.5711 27.196 80.4471 27.732C82.4124 28.1787 84.2884 28.9827 86.0751 30.144C87.9511 31.3053 89.8271 32.8687 91.7031 34.834L88.7551 40.73L88.2191 40.596C89.1124 38.8093 89.3358 36.978 88.8891 35.102C88.4424 33.226 87.4151 31.7073 85.8071 30.546C82.7698 28.4913 78.9284 27.464 74.2831 27.464C68.2084 27.464 63.4738 30.9927 60.0791 38.05V91.114C60.0791 92.9007 60.7491 93.794 62.0891 93.794H64.7691V94.33H48.6891V93.794H51.3691C52.7091 93.794 53.3791 92.9007 53.3791 91.114V31.216C53.3791 29.4293 52.7091 28.536 51.3691 28.536H48.6891V28H60.0791V34.164C63.5631 29.34 68.2978 26.928 74.2831 26.928ZM143.449 93.794H146.129V94.33H134.873V84.95C131.568 91.918 124.242 95.402 112.897 95.402C106.822 95.402 102.222 93.7493 99.0951 90.444C96.0578 87.1387 94.4051 83.1633 94.1371 78.518C93.8691 73.3367 95.7004 68.87 99.6311 65.118C103.651 61.366 109.458 58.6413 117.051 56.944C125.002 55.068 130.451 52.4327 133.399 49.038C134.382 47.8767 134.873 46.5367 134.873 45.018V43.276C134.873 38.988 133.265 35.2807 130.049 32.154C126.922 29.0273 123.304 27.464 119.195 27.464C112.138 27.3747 106.018 29.742 100.837 34.566C98.5144 36.6207 97.8891 38.854 98.9611 41.266L98.5591 41.534L96.6831 37.246C100.703 33.5833 104.276 30.9927 107.403 29.474C110.619 27.866 114.55 27.062 119.195 27.062H119.329C125.404 27.062 130.585 29.2507 134.873 33.628C139.25 37.916 141.439 43.0973 141.439 49.172V91.114C141.528 92.9007 142.198 93.794 143.449 93.794ZM134.873 83.61V48.1C132.282 52.2987 126.386 55.3807 117.185 57.346C114.237 57.9713 111.646 59.0433 109.413 60.562C107.18 61.9913 105.482 63.5993 104.321 65.386C103.249 67.0833 102.356 68.9147 101.641 70.88C100.926 72.756 100.569 74.5427 100.569 76.24C100.658 77.848 100.748 79.2773 100.837 80.528C101.552 84.816 103.204 88.2553 105.795 90.846C108.475 93.4367 111.736 94.732 115.577 94.732C120.49 94.732 124.868 93.526 128.709 91.114C131.657 89.1487 133.712 86.6473 134.873 83.61ZM190.108 28H200.024V28.536H197.344C195.826 28.536 194.798 29.4293 194.262 31.216L173.894 90.712L175.1 94.33H168.4L147.094 31.35C146.469 29.474 145.218 28.536 143.342 28.536H141.332V28H157.278V28.536H155.67C154.956 28.536 154.375 28.8487 153.928 29.474C153.571 30.01 153.526 30.5907 153.794 31.216L173.626 89.908L193.726 31.216C194.084 30.5013 194.218 29.876 194.128 29.34C194.039 28.804 193.592 28.536 192.788 28.536H190.108V28ZM251.607 79.59L252.009 79.858C249.418 84.7713 246.024 88.6127 241.825 91.382C237.626 94.062 232.981 95.402 227.889 95.402C219.313 95.402 212.032 92.0967 206.047 85.486C200.062 78.786 197.069 70.7013 197.069 61.232C197.069 55.068 198.409 49.3507 201.089 44.08C203.858 38.8093 207.61 34.6553 212.345 31.618C217.08 28.5807 222.261 27.062 227.889 27.062H228.023C231.06 27.062 233.919 27.6873 236.599 28.938C239.279 30.0993 241.602 31.7967 243.567 34.03C245.532 36.2633 246.962 38.8093 247.855 41.668C249.106 45.688 249.061 49.6633 247.721 53.594C246.47 57.4353 244.103 60.8747 240.619 63.912C234.366 69.1827 226.862 71.818 218.107 71.818C213.73 71.818 209.531 71.1033 205.511 69.674C206.851 76.9993 209.576 83.0293 213.685 87.764C217.794 92.4987 222.529 94.866 227.889 94.866C232.892 94.866 237.448 93.526 241.557 90.846C245.666 88.166 249.016 84.414 251.607 79.59ZM204.841 61.232C204.841 63.8227 205.064 66.458 205.511 69.138C214.176 72.4433 222.931 72.2647 231.775 68.602C232.579 68.2447 233.517 67.664 234.589 66.86C235.75 66.056 237.09 64.85 238.609 63.242C240.128 61.634 241.289 59.758 242.093 57.614C242.986 55.47 243.612 52.8793 243.969 49.842C244.326 46.7153 243.88 43.3653 242.629 39.792C241.825 36.7547 240.172 33.9853 237.671 31.484C235.17 28.8933 231.954 27.5533 228.023 27.464H227.889V27.598C221.546 27.598 216.097 30.9033 211.541 37.514C207.074 44.0353 204.841 51.9413 204.841 61.232ZM269.645 93.794H272.325V94.33H256.245V93.794H258.925C260.265 93.794 260.935 92.9453 260.935 91.248V5.086C260.935 4.99666 260.935 4.81799 260.935 4.55C260.935 3.92466 260.935 3.47799 260.935 3.20999C260.935 2.85266 260.845 2.49533 260.667 2.138C260.577 1.69133 260.354 1.42333 259.997 1.33399C259.729 1.15533 259.371 1.066 258.925 1.066H256.245V0.529994H267.635V91.248C267.635 92.9453 268.305 93.794 269.645 93.794Z" fill="black"/>
</svg>
