<svg width="329" height="80" viewBox="0 0 329 80" fill="none" xmlns="http://www.w3.org/2000/svg">
<path d="M79.848 1.048V0.599995H87.688V1.048H86.568C85.448 1.048 84.6267 1.496 84.104 2.392C83.5813 3.288 83.096 4.48266 82.648 5.976L65.288 75.304L66.184 79H60.584L44.12 12.808L28.44 75.304L29.336 79H23.736L5.032 3.624C4.88267 3.10133 4.62133 2.65333 4.248 2.27999C3.94933 1.90666 3.576 1.608 3.128 1.384C2.68 1.16 2.19467 1.048 1.672 1.048H0.44V0.599995H13.656V1.048H12.536C11.7893 1.048 11.2293 1.30933 10.856 1.832C10.4827 2.28 10.3707 2.87733 10.52 3.624L28.216 74.408L43.896 11.912L41.768 3.624C41.6933 3.25066 41.544 2.91466 41.32 2.616C41.1707 2.24266 40.9467 1.944 40.648 1.71999C40.3493 1.496 40.0133 1.34667 39.64 1.272C39.2667 1.12266 38.8933 1.048 38.52 1.048H37.288V0.599995H50.504V1.048H49.384C48.6373 1.048 48.0773 1.30933 47.704 1.832C47.3307 2.28 47.2187 2.87733 47.368 3.624L65.064 74.408L82.424 5.192C83.1707 2.42933 82.648 1.048 80.856 1.048H79.848ZM120.815 77.992H123.055V78.44H113.647V70.6C110.884 76.424 104.761 79.336 95.2786 79.336C90.2013 79.336 86.356 77.9547 83.7426 75.192C81.204 72.4293 79.8226 69.1067 79.5986 65.224C79.3746 60.8933 80.9053 57.16 84.1906 54.024C87.5506 50.888 92.404 48.6107 98.7506 47.192C105.396 45.624 109.951 43.4213 112.415 40.584C113.236 39.6133 113.647 38.4933 113.647 37.224V35.768C113.647 32.184 112.303 29.0853 109.615 26.472C107.001 23.8587 103.977 22.552 100.543 22.552C94.644 22.4773 89.5293 24.456 85.1986 28.488C83.2573 30.2053 82.7346 32.072 83.6306 34.088L83.2946 34.312L81.7266 30.728C85.0866 27.6667 88.0733 25.5013 90.6866 24.232C93.3746 22.888 96.66 22.216 100.543 22.216H100.655C105.732 22.216 110.063 24.0453 113.647 27.704C117.305 31.288 119.135 35.6187 119.135 40.696V75.752C119.209 77.2453 119.769 77.992 120.815 77.992ZM113.647 69.48V39.8C111.481 43.3093 106.553 45.8853 98.8626 47.528C96.3986 48.0507 94.2333 48.9467 92.3666 50.216C90.5 51.4107 89.0813 52.7547 88.1106 54.248C87.2146 55.6667 86.468 57.1973 85.8706 58.84C85.2733 60.408 84.9746 61.9013 84.9746 63.32C85.0493 64.664 85.124 65.8587 85.1986 66.904C85.796 70.488 87.1773 73.3627 89.3426 75.528C91.5826 77.6933 94.308 78.776 97.5186 78.776C101.625 78.776 105.284 77.768 108.495 75.752C110.959 74.1093 112.676 72.0187 113.647 69.48ZM140.361 78.888H140.025H139.913H140.249L140.361 79.336C134.089 79.2613 130.02 77.88 128.153 75.192C126.287 72.504 125.353 67.1653 125.353 59.176V22.552H118.297V22.216H125.353V2.952C125.279 1.45866 124.719 0.711993 123.673 0.711993H121.433V0.263999H130.841V22.216H137.897V22.552H130.841V59.176C130.841 61.5653 130.841 63.3573 130.841 64.552C130.916 65.672 130.991 67.0533 131.065 68.696C131.14 70.3387 131.252 71.496 131.401 72.168C131.551 72.84 131.775 73.6987 132.073 74.744C132.372 75.7147 132.745 76.3867 133.193 76.76C133.641 77.0587 134.201 77.432 134.873 77.88C135.545 78.328 136.329 78.6267 137.225 78.776C138.121 78.8507 139.167 78.888 140.361 78.888ZM182.782 66.12L183.118 66.344C180.953 70.4507 178.115 73.6613 174.606 75.976C171.097 78.216 167.214 79.336 162.958 79.336C155.79 79.336 149.705 76.5733 144.702 71.048C139.699 65.448 137.198 58.6907 137.198 50.776C137.198 42.8613 139.699 36.1413 144.702 30.616C149.779 25.016 155.865 22.216 162.958 22.216C169.753 22.216 175.054 24.8667 178.862 30.168C179.086 30.5413 179.385 30.6533 179.758 30.504C180.206 30.28 180.393 29.944 180.318 29.496L179.87 26.024H180.206L181.438 35.32H181.55L181.102 35.432C179.683 31.4 177.369 28.264 174.158 26.024C170.947 23.784 167.214 22.664 162.958 22.664C157.657 22.664 153.102 25.4267 149.294 30.952C145.561 36.4027 143.694 43.0107 143.694 50.776C143.694 58.5413 145.561 65.1867 149.294 70.712C153.102 76.1627 157.657 78.888 162.958 78.888C167.139 78.888 170.947 77.768 174.382 75.528C177.817 73.288 180.617 70.152 182.782 66.12ZM232.922 77.992H235.162V78.44H221.722V77.992H223.962C225.082 77.992 225.642 77.2453 225.642 75.752V50.664C225.642 41.256 224.298 34.2 221.61 29.496C218.997 24.792 215.301 22.44 210.522 22.44C207.461 22.44 204.362 23.5973 201.226 25.912C198.09 28.152 195.552 31.176 193.61 34.984V75.752C193.61 77.2453 194.17 77.992 195.29 77.992H197.53V78.44H184.09V77.992H186.33C187.45 77.992 188.01 77.2453 188.01 75.752V2.952C188.01 1.45866 187.45 0.711993 186.33 0.711993H184.09V0.263999H193.61V31.96C195.701 28.824 198.202 26.3973 201.114 24.68C204.026 22.9627 207.162 22.104 210.522 22.104C216.57 22.104 221.424 24.3067 225.082 28.712C229.114 33.4907 231.13 39.8747 231.13 47.864L231.242 75.864V75.752C231.242 77.2453 231.802 77.992 232.922 77.992ZM282.051 66.12L282.387 66.344C280.222 70.4507 277.384 73.6613 273.875 75.976C270.366 78.216 266.483 79.336 262.227 79.336C255.059 79.336 248.974 76.5733 243.971 71.048C238.968 65.448 236.467 58.6907 236.467 50.776C236.467 45.624 237.587 40.8453 239.827 36.44C242.142 32.0347 245.278 28.5627 249.235 26.024C253.192 23.4853 257.523 22.216 262.227 22.216H262.339C264.878 22.216 267.267 22.7387 269.507 23.784C271.747 24.7547 273.688 26.1733 275.331 28.04C276.974 29.9067 278.168 32.0347 278.915 34.424C279.96 37.784 279.923 41.1067 278.803 44.392C277.758 47.6027 275.779 50.4773 272.867 53.016C267.64 57.4213 261.368 59.624 254.051 59.624C250.392 59.624 246.883 59.0267 243.523 57.832C244.643 63.9547 246.92 68.9947 250.355 72.952C253.79 76.9093 257.747 78.888 262.227 78.888C266.408 78.888 270.216 77.768 273.651 75.528C277.086 73.288 279.886 70.152 282.051 66.12ZM242.963 50.776C242.963 52.9413 243.15 55.144 243.523 57.384C250.766 60.1467 258.083 59.9973 265.475 56.936C266.147 56.6373 266.931 56.152 267.827 55.48C268.798 54.808 269.918 53.8 271.187 52.456C272.456 51.112 273.427 49.544 274.099 47.752C274.846 45.96 275.368 43.7947 275.667 41.256C275.966 38.6427 275.592 35.8427 274.547 32.856C273.875 30.3173 272.494 28.0027 270.403 25.912C268.312 23.7467 265.624 22.6267 262.339 22.552H262.227V22.664C256.926 22.664 252.371 25.4267 248.563 30.952C244.83 36.4027 242.963 43.0107 242.963 50.776ZM312.359 47.192C317.586 49.208 321.506 51.4107 324.119 53.8C326.732 56.1893 328.114 59.512 328.263 63.768C328.263 68.248 326.284 71.9813 322.327 74.968C318.37 77.88 312.77 79.336 305.527 79.336C298.135 79.336 292.311 77.1333 288.055 72.728C287.532 72.1307 286.898 72.0187 286.151 72.392C285.404 72.7653 285.106 73.3627 285.255 74.184L285.479 75.528H285.143L283.575 66.68L284.023 66.568C286.562 70.824 289.436 73.96 292.647 75.976C295.932 77.9173 300.226 78.888 305.527 78.888C310.156 78.888 314.188 77.6933 317.623 75.304C321.058 72.84 322.887 69.816 323.111 66.232C323.559 60.5573 320.236 56.264 313.143 53.352C312.471 53.128 309.895 52.1573 305.415 50.44C301.01 48.7227 298.247 47.6773 297.127 47.304C289.436 44.2427 285.554 39.8 285.479 33.976C285.479 30.6907 287.234 27.8907 290.743 25.576C294.327 23.2613 298.62 22.104 303.623 22.104C307.58 22.104 310.903 22.664 313.591 23.784C316.354 24.8293 318.93 26.584 321.319 29.048C321.767 29.496 322.364 29.608 323.111 29.384C323.858 29.16 324.156 28.7493 324.007 28.152L323.671 25.912H324.007L325.575 34.76L324.791 34.872C322.252 30.5413 319.415 27.4053 316.279 25.464C313.143 23.5227 308.924 22.552 303.623 22.552C299.964 22.552 296.866 23.5227 294.327 25.464C291.788 27.4053 290.519 29.7947 290.519 32.632C290.519 36.5147 292.834 39.4267 297.463 41.368C298.807 41.8907 301.57 42.9733 305.751 44.616C310.007 46.2587 312.21 47.1173 312.359 47.192Z" fill="black"/>
</svg>
