<svg width="269" height="142" viewBox="0 0 269 142" fill="none" xmlns="http://www.w3.org/2000/svg">
<path d="M76.6 115.4C77.6667 118.6 78.4 120.867 78.8 122.2C79.3333 123.4 80.2667 125.467 81.6 128.4C83.0667 131.2 84.4 133.267 85.6 134.6C86.8 135.933 88.4 137.2 90.4 138.4C92.5333 139.6 94.8 140.2 97.2 140.2V141C89.7333 141 83.8667 139.667 79.6 137C75.4667 134.2 72.2 129.533 69.8 123C68.7333 119.933 67.5333 116.667 66.2 113.2C65 109.6 63.7333 105.867 62.4 102C61.2 98.1333 60.4 95.6 60 94.4C56.9333 85.6 53.2 79.4667 48.8 76C45.2 73.0667 40.6 71.6 35 71.6H17.2V136.2C17.2 138.867 18.2 140.2 20.2 140.2H24.2V141H0.2V140.2H4.2C6.2 140.2 7.2 138.867 7.2 136.2V5.79999C7.2 3.13332 6.2 1.79999 4.2 1.79999H0.2V0.99999H49C58.6 0.99999 66.7333 4.39999 73.4 11.2C80.2 17.8667 83.6 26 83.6 35.6V37C83.6 43.2667 82.0667 49.0667 79 54.4C75.9333 59.7333 71.7333 63.9333 66.4 67C61.0667 70.0667 55.2667 71.6 49 71.6H45.2C48.6667 72.2667 51.7333 73.3333 54.4 74.8C60.8 78.1333 65.6 83.8667 68.8 92C69.0667 92.5333 70.2667 96.1333 72.4 102.8C74.5333 109.333 75.9333 113.533 76.6 115.4ZM17.2 70.8H37.8H38C47.6 70.8 55.8667 67.5333 62.8 61C69.8667 54.3333 73.5333 46.3333 73.8 37C73.8 30.6 72.2667 24.7333 69.2 19.4C66.2667 13.9333 62.0667 9.66666 56.6 6.59999C51.2667 3.39999 45.4667 1.79999 39.2 1.79999H17.2V70.8ZM172.884 118L173.484 118.4C169.618 125.733 164.551 131.467 158.284 135.6C152.018 139.6 145.084 141.6 137.484 141.6C124.684 141.6 113.818 136.667 104.884 126.8C95.951 116.8 91.4844 104.733 91.4844 90.6C91.4844 81.4 93.4844 72.8667 97.4844 65C101.618 57.1333 107.218 50.9333 114.284 46.4C121.351 41.8667 129.084 39.6 137.484 39.6H137.684C142.218 39.6 146.484 40.5333 150.484 42.4C154.484 44.1333 157.951 46.6667 160.884 50C163.818 53.3333 165.951 57.1333 167.284 61.4C169.151 67.4 169.084 73.3333 167.084 79.2C165.218 84.9333 161.684 90.0667 156.484 94.6C147.151 102.467 135.951 106.4 122.884 106.4C116.351 106.4 110.084 105.333 104.084 103.2C106.084 114.133 110.151 123.133 116.284 130.2C122.418 137.267 129.484 140.8 137.484 140.8C144.951 140.8 151.751 138.8 157.884 134.8C164.018 130.8 169.018 125.2 172.884 118ZM103.084 90.6C103.084 94.4667 103.418 98.4 104.084 102.4C117.018 107.333 130.084 107.067 143.284 101.6C144.484 101.067 145.884 100.2 147.484 99C149.218 97.8 151.218 96 153.484 93.6C155.751 91.2 157.484 88.4 158.684 85.2C160.018 82 160.951 78.1333 161.484 73.6C162.018 68.9333 161.351 63.9333 159.484 58.6C158.284 54.0667 155.818 49.9333 152.084 46.2C148.351 42.3333 143.551 40.3333 137.684 40.2H137.484V40.4C128.018 40.4 119.884 45.3333 113.084 55.2C106.418 64.9333 103.084 76.7333 103.084 90.6ZM264.206 139.2H268.206V140H251.206V124C247.473 129.467 242.94 133.8 237.606 137C232.406 140.067 226.873 141.6 221.006 141.6C209.94 141.6 200.473 136.6 192.606 126.6C184.74 116.6 180.806 104.533 180.806 90.4C180.806 76.2667 184.74 64.2667 192.606 54.4C200.473 44.4 209.94 39.4 221.006 39.4C226.873 39.4 232.406 40.9333 237.606 44C242.94 47.0667 247.473 51.4 251.206 57V4.79999C251.206 2.13333 250.206 0.799993 248.206 0.799993H244.206V-8.58307e-06H261.206V135.2C261.206 137.867 262.206 139.2 264.206 139.2ZM251.206 118V62.4C247.74 55.6 243.206 50.2 237.606 46.2C232.006 42.0667 226.473 40 221.006 40C212.74 40 205.673 44.9333 199.806 54.8C193.94 64.6667 191.006 76.6 191.006 90.6C191.006 104.467 193.94 116.333 199.806 126.2C205.673 135.933 212.74 140.8 221.006 140.8C226.473 140.8 231.94 138.733 237.406 134.6C243.006 130.467 247.606 124.933 251.206 118Z" fill="white"/>
</svg>
